<svg width="18" height="20" viewBox="0 0 18 20" fill="none" xmlns="http://www.w3.org/2000/svg">
<path d="M5.02993 10.0194C5.17076 9.96715 5.32221 9.93998 5.47532 9.9395C5.62843 9.93902 5.78009 9.96523 5.92135 10.0166C6.06261 10.0679 6.19059 10.1434 6.29773 10.2385C6.40488 10.3336 6.489 10.4464 6.54514 10.5702C6.60128 10.694 6.62828 10.8264 6.62457 10.9595C6.62085 11.0925 6.58649 11.2236 6.5235 11.3449C6.46052 11.4663 6.37019 11.5754 6.25787 11.6658C6.14555 11.7563 6.0135 11.8263 5.86955 11.8716C5.10386 12.1339 4.4467 12.5904 3.98358 13.1818C3.52045 13.7733 3.27279 14.4722 3.27282 15.1876V16.9203C3.27282 17.1844 3.3935 17.4377 3.60831 17.6245C3.82313 17.8112 4.11448 17.9161 4.41827 17.9161H13.5818C13.8856 17.9161 14.177 17.8112 14.3918 17.6245C14.6066 17.4377 14.7273 17.1844 14.7273 16.9203V15.2802C14.7274 14.5418 14.4694 13.8208 13.9874 13.2128C13.5055 12.6047 12.8224 12.1384 12.0286 11.8756C11.8838 11.8319 11.7505 11.7633 11.6366 11.674C11.5228 11.5847 11.4308 11.4764 11.366 11.3556C11.3012 11.2348 11.265 11.1039 11.2594 10.9707C11.2539 10.8375 11.2792 10.7047 11.3338 10.5801C11.3884 10.4556 11.4712 10.3418 11.5773 10.2456C11.6835 10.1494 11.8107 10.0727 11.9516 10.02C12.0924 9.96734 12.244 9.9398 12.3973 9.93901C12.5507 9.93822 12.7026 9.96419 12.8442 10.0154C14.0716 10.4219 15.1281 11.143 15.8735 12.0832C16.6189 13.0234 17.0181 14.1383 17.0182 15.2802V16.9203C17.0182 17.7126 16.6561 18.4725 16.0117 19.0328C15.3673 19.593 14.4932 19.9077 13.5818 19.9077H4.41827C3.50689 19.9077 2.63285 19.593 1.98841 19.0328C1.34397 18.4725 0.98193 17.7126 0.98193 16.9203L0.98193 15.1876C0.982087 14.0725 1.36826 12.9832 2.09022 12.0614C2.81217 11.1397 3.8365 10.4281 5.02993 10.0194ZM9.00005 -0.00839233C10.2152 -0.00839233 11.3806 0.411268 12.2399 1.15827C13.0991 1.90527 13.5818 2.91842 13.5818 3.97484V5.96645C13.5818 7.02287 13.0991 8.03602 12.2399 8.78302C11.3806 9.53002 10.2152 9.94968 9.00005 9.94968C7.78488 9.94968 6.61949 9.53002 5.76024 8.78302C4.90099 8.03602 4.41827 7.02287 4.41827 5.96645V3.97484C4.41827 2.91842 4.90099 1.90527 5.76024 1.15827C6.61949 0.411268 7.78488 -0.00839233 9.00005 -0.00839233ZM9.00005 1.98322C8.39247 1.98322 7.80977 2.19305 7.38014 2.56655C6.95052 2.94005 6.70916 3.44663 6.70916 3.97484V5.96645C6.70916 6.49466 6.95052 7.00123 7.38014 7.37473C7.80977 7.74823 8.39247 7.95806 9.00005 7.95806C9.60763 7.95806 10.1903 7.74823 10.62 7.37473C11.0496 7.00123 11.2909 6.49466 11.2909 5.96645V3.97484C11.2909 3.44663 11.0496 2.94005 10.62 2.56655C10.1903 2.19305 9.60763 1.98322 9.00005 1.98322Z" fill="#181725"/>
</svg>
