<svg width="23" height="21" viewBox="0 0 23 21" fill="none" xmlns="http://www.w3.org/2000/svg">
<path d="M3.69423 9.49162L11.5183 17.3157L19.3424 9.49162C20.0342 8.79988 20.4228 7.86167 20.4228 6.88339C20.4228 5.90511 20.0342 4.9669 19.3424 4.27515C18.9999 3.93263 18.5933 3.66093 18.1458 3.47556C17.6982 3.29019 17.2186 3.19478 16.7342 3.19478C15.7559 3.19478 14.8177 3.5834 14.126 4.27515L11.5183 6.88277L8.91071 4.27638C8.2172 3.59391 7.28211 3.21313 6.30912 3.21698C5.33613 3.22082 4.40408 3.60899 3.71599 4.29692C3.0279 4.98484 2.63952 5.9168 2.63544 6.88979C2.63136 7.86277 3.01193 8.79795 3.69423 9.49162ZM10.6491 2.5355L11.5183 3.40471L12.3875 2.5355C12.9574 1.96058 13.6353 1.50389 14.3822 1.19165C15.129 0.879402 15.9302 0.717753 16.7398 0.715981C17.5493 0.714208 18.3512 0.872347 19.0994 1.18132C19.8477 1.49029 20.5275 1.94401 21.0999 2.51643C21.6723 3.08884 22.1261 3.76869 22.435 4.51693C22.744 5.26516 22.9021 6.06706 22.9004 6.87658C22.8986 7.6861 22.7369 8.4873 22.4247 9.23418C22.1125 9.98105 21.6558 10.6589 21.0808 11.2288L12.3888 19.9221C12.2746 20.0364 12.139 20.1271 11.9897 20.189C11.8405 20.2508 11.6805 20.2827 11.5189 20.2827C11.3574 20.2827 11.1974 20.2508 11.0481 20.189C10.8989 20.1271 10.7633 20.0364 10.6491 19.9221L1.95581 11.23C1.37308 10.662 0.908936 9.98384 0.590319 9.23499C0.271702 8.48615 0.10495 7.68149 0.0997356 6.86769C0.0945214 6.0539 0.250949 5.24717 0.559944 4.4943C0.86894 3.74143 1.32435 3.05741 1.89976 2.48192C2.47517 1.90643 3.15913 1.45092 3.91195 1.14182C4.66478 0.832716 5.47149 0.676174 6.28528 0.681273C7.09908 0.686372 7.90376 0.85301 8.65265 1.17152C9.40154 1.49003 10.0797 1.95408 10.6479 2.53673L10.6491 2.5355Z" fill="#181725"/>
</svg>
