<svg width="14" height="16" viewBox="0 0 14 16" fill="none" xmlns="http://www.w3.org/2000/svg">
<g clip-path="url(#clip0_1_8505)">
<path d="M1.6575 3.93896H12.0822C12.7365 3.93896 13.2669 4.46672 13.2669 5.11774L13.7407 14.0764C13.7407 14.7274 13.2103 15.2552 12.5561 15.2552H1.18365C0.5294 15.2552 -0.000976562 14.7274 -0.000976562 14.0764L0.472875 5.11774C0.472875 4.46672 1.00325 3.93896 1.6575 3.93896Z" fill="#BD6633"/>
<path d="M3.35699 6.51819V3.16992C3.35699 1.85501 4.41547 0.789062 5.72116 0.789063H7.87249C9.17818 0.789063 10.2367 1.85501 10.2367 3.16992V6.51819" stroke="white" stroke-width="2" stroke-linecap="round"/>
<path d="M3.35699 3.62343V3.16992C3.35699 1.85501 4.41547 0.789062 5.72116 0.789063H7.87249C9.17818 0.789063 10.2367 1.85501 10.2367 3.16992V3.62343" stroke="#BD6633" stroke-width="2" stroke-linecap="round"/>
</g>
<defs>
<clipPath id="clip0_1_8505">
<rect width="13.7417" height="14.4662" fill="white" transform="translate(-0.000976562 0.789062)"/>
</clipPath>
</defs>
</svg>
