<svg width="15" height="17" viewBox="0 0 15 17" fill="none" xmlns="http://www.w3.org/2000/svg">
<path fill-rule="evenodd" clip-rule="evenodd" d="M0.909169 15.8413C0.909169 16.3437 1.31502 16.7495 1.81736 16.7495H6.35832V9.09463H0.909169V15.8413ZM8.1747 16.7495H12.7157C13.218 16.7495 13.6239 16.3437 13.6239 15.8413V9.09463H8.1747V16.7495ZM13.6239 4.55367H12.429C12.605 4.21026 12.7157 3.82995 12.7157 3.41843C12.7157 2.04195 11.5946 0.920898 10.2181 0.920898C9.03749 0.920898 8.27404 1.52541 7.29489 2.85932C6.31575 1.52541 5.5523 0.920898 4.37165 0.920898C2.99517 0.920898 1.87412 2.04195 1.87412 3.41843C1.87412 3.82995 1.98197 4.21026 2.16077 4.55367H0.909169C0.406825 4.55367 0.000976562 4.95951 0.000976562 5.46186V7.73234C0.000976562 7.98209 0.20532 8.18644 0.455073 8.18644H14.078C14.3277 8.18644 14.532 7.98209 14.532 7.73234V5.46186C14.532 4.95951 14.1262 4.55367 13.6239 4.55367ZM4.36881 4.55367C3.74159 4.55367 3.23357 4.04565 3.23357 3.41843C3.23357 2.79121 3.74159 2.28319 4.36881 2.28319C4.93359 2.28319 5.35079 2.37684 6.81242 4.55367H4.36881H4.36881ZM10.2181 4.55367H7.77453C9.23332 2.38252 9.63916 2.28319 10.2181 2.28319C10.8454 2.28319 11.3534 2.79121 11.3534 3.41843C11.3534 4.04565 10.8454 4.55367 10.2181 4.55367Z" fill="#BD6633"/>
</svg>
