<svg width="17" height="17" viewBox="0 0 17 17" fill="none" xmlns="http://www.w3.org/2000/svg">
<g id="logos:facebook" clip-path="url(#clip0_1_8346)">
<path id="Vector" d="M16.0617 17.0001C16.5798 17.0001 17 16.58 17 16.0618V0.938254C17 0.42002 16.5798 0 16.0617 0H0.938254C0.419953 0 0 0.42002 0 0.938254V16.0618C0 16.58 0.419953 17.0001 0.938254 17.0001H16.0617Z" fill="#395185"/>
<path id="Vector_2" d="M11.7297 17.0001V10.4168H13.9395L14.2704 7.85117H11.7297V6.21306C11.7297 5.47024 11.936 4.96403 13.0013 4.96403L14.3599 4.96343V2.66876C14.1248 2.63749 13.3184 2.56763 12.3802 2.56763C10.4213 2.56763 9.08031 3.76327 9.08031 5.95906V7.85117H6.86487V10.4168H9.08031V17.0001H11.7297Z" fill="white"/>
</g>
<defs>
<clipPath id="clip0_1_8346">
<rect width="17" height="17" fill="white"/>
</clipPath>
</defs>
</svg>
