<svg width="36" height="34" viewBox="0 0 36 34" fill="none" xmlns="http://www.w3.org/2000/svg">
<path d="M28.6655 32.8755C28.8437 33.6643 28.0112 34.2847 27.3373 33.8656M28.6655 32.8755L26.0948 21.5249L34.6732 13.895C35.2686 13.3661 34.9495 12.3613 34.1651 12.2918M28.6655 32.8755L27.8366 33.0628L27.834 33.0634L27.6901 33.0959L27.6902 33.0963L27.8337 33.0638L27.8364 33.0632L28.6655 32.8755ZM27.3373 33.8656L22.8556 11.2943L34.1651 12.2918M27.3373 33.8656L17.618 27.848L7.89864 33.8656C7.22299 34.2828 6.39224 33.6624 6.57052 32.8755M27.3373 33.8656L6.57052 32.8755M34.1651 12.2918L34.082 13.2294L34.0819 13.2302L34.0768 13.2879L34.0773 13.2879L34.0823 13.2306L34.0824 13.2299L34.1651 12.2918ZM6.57052 32.8755L9.14119 21.5249L6.57052 32.8755ZM17.617 1.19359L17.645 1.26176L17.6454 1.26198L21.9309 11.6749L22.1622 12.2371L22.7678 12.2905L33.8715 13.2698L25.4302 20.7777L24.9891 21.17L25.1195 21.7458L27.6405 32.8771L18.1444 26.9978L17.618 26.6719L17.0916 26.9978L7.59546 32.8771L10.1165 21.7458L10.2469 21.17L9.80579 20.7777L1.36272 13.2679L12.4664 12.2886L13.0719 12.2352L13.3033 11.6732L17.617 1.19359ZM34.0091 13.1474L34.0086 13.1478L34.0091 13.1474Z" stroke="#ECA61B" stroke-width="2"/>
</svg>
